<svg width="284" height="325" viewBox="0 0 284 325" fill="none" xmlns="http://www.w3.org/2000/svg">
<path d="M278.055 230.211C266.031 216.922 242.617 197.305 242.617 132.125C242.617 83.3984 208.445 44.1641 161.617 34.0391V20.75C161.617 9.99219 152.758 0.5 142 0.5C130.609 0.5 121.75 9.99219 121.75 20.75V34.0391C74.9219 44.1641 40.75 83.3984 40.75 132.125C40.75 197.305 17.3359 216.922 5.3125 230.211C1.51562 234.008 -0.382812 239.07 0.25 243.5C0.25 254.258 7.84375 263.75 20.5 263.75H262.867C275.523 263.75 283.117 254.258 283.75 243.5C283.75 239.07 281.852 234.008 278.055 230.211ZM42.6484 233.375C55.9375 216.289 70.4922 186.547 71.125 132.758C71.125 132.758 71.125 132.758 71.125 132.125C71.125 93.5234 102.766 61.25 142 61.25C180.602 61.25 212.875 93.5234 212.875 132.125C212.875 132.758 212.242 132.758 212.242 132.758C212.875 186.547 227.43 216.289 240.719 233.375H42.6484ZM142 324.5C164.148 324.5 181.867 306.781 181.867 284H101.5C101.5 306.781 119.219 324.5 142 324.5Z" fill="black" />
</svg>
